<svg width="716" height="458" viewBox="0 0 716 458" fill="none" xmlns="http://www.w3.org/2000/svg">
<g id="undraw_Faq_re_31cw 1" clip-path="url(#clip0)">
<circle id="Ellipse 1" cx="325" cy="230" r="224" fill="url(#paint0_linear)"/>
<path id="monster3" d="M627.428 422.871C650.453 399.946 650.453 362.776 627.428 339.85C604.403 316.925 567.071 316.925 544.046 339.85C521.02 362.776 521.02 399.946 544.046 422.871C567.071 445.797 604.403 445.797 627.428 422.871Z" fill="#2F2E41"/>
<path id="Vector" d="M585.409 386.761C596.275 384.366 603.134 373.654 600.728 362.835C598.323 352.016 587.565 345.187 576.698 347.582C565.832 349.976 558.973 360.688 561.379 371.507C563.784 382.326 574.542 389.156 585.409 386.761Z" fill="white"/>
<path id="Vector_2" d="M574.342 368.52C577.965 367.721 580.251 364.151 579.449 360.544C578.647 356.938 575.061 354.662 571.439 355.46C567.817 356.258 565.531 359.829 566.332 363.435C567.134 367.042 570.72 369.318 574.342 368.52Z" fill="#3F3D56"/>
<path id="hat3" d="M583.408 341.673C559.295 341.629 542.367 337.341 542.408 315.589C542.448 293.838 562.028 276.241 586.141 276.285C610.254 276.33 629.769 293.999 629.729 315.75C629.688 337.501 607.521 341.718 583.408 341.673Z" fill="#D1B6E1"/>
<path id="leaf" d="M678.149 391.173C671.232 415.064 651.037 431.787 629.971 445.993C627.029 447.977 624.087 449.916 621.144 451.808C621.124 451.817 621.103 451.836 621.083 451.844C620.941 451.935 620.8 452.026 620.668 452.117C620.06 452.507 619.453 452.897 618.85 453.282L619.181 453.43C619.181 453.43 619.506 453.602 619.15 453.458C619.045 453.414 618.934 453.374 618.828 453.33C606.59 448.416 594.135 443.139 584.756 433.933C575.027 424.372 569.341 409.378 574.609 396.818C575.302 395.173 576.177 393.61 577.217 392.158C577.645 391.549 578.105 390.966 578.584 390.395C581.49 386.863 585.288 384.166 589.588 382.581C593.888 380.996 598.534 380.579 603.049 381.375C607.564 382.17 611.785 384.148 615.277 387.106C618.77 390.064 621.408 393.895 622.921 398.205C624.468 383.857 612.586 371.839 601.151 362.971C589.711 354.108 576.712 344.456 574.501 330.188C573.266 322.249 576.038 314.556 581.089 308.38C581.245 308.193 581.401 308.005 581.562 307.823C587.71 300.63 596.358 296.011 605.777 294.889C623.318 293.073 640.357 302.318 653.101 314.462C673.612 334 686.011 364.01 678.149 391.173Z" fill="#379392"/>
<path id="Vector_3" d="M645.177 359.925C648.543 365.141 651.128 370.817 652.849 376.775C654.305 382.1 654.953 387.611 654.771 393.127C654.302 404.477 651.102 415.549 645.44 425.412C641.175 432.894 635.977 439.809 629.971 445.993C627.029 447.977 624.087 449.916 621.144 451.808C621.124 451.817 621.103 451.835 621.083 451.844C620.941 451.935 620.8 452.026 620.668 452.117C620.06 452.507 619.453 452.897 618.85 453.282C618.85 453.282 619.506 453.602 619.15 453.458C619.045 453.414 618.934 453.374 618.828 453.33C619.925 444.376 618.851 435.291 615.695 426.836C612.539 418.381 607.394 410.802 600.69 404.735C593.97 398.759 585.927 394.45 577.217 392.158C577.645 391.549 578.105 390.966 578.584 390.394C581.948 391.334 585.222 392.567 588.368 394.081C599.613 399.458 608.821 408.297 614.628 419.289C619.84 429.271 622.082 440.526 621.094 451.733C621.596 451.279 622.1 450.815 622.588 450.356C631.888 441.724 640.148 431.815 645.738 420.379C650.587 410.695 652.971 399.972 652.679 389.154C652.222 377.359 647.502 366.433 640.668 356.922C633.178 346.775 624.329 337.695 614.368 329.935C604.33 321.93 593.345 315.177 581.659 309.829C581.396 309.706 581.19 309.487 581.084 309.218C580.977 308.948 580.979 308.648 581.089 308.38C581.167 308.139 581.337 307.939 581.563 307.823C581.679 307.773 581.804 307.75 581.931 307.755C582.057 307.76 582.18 307.794 582.291 307.853C583.734 308.515 585.167 309.185 586.588 309.885C598.427 315.71 609.492 322.978 619.531 331.521C629.227 339.752 638.356 349.156 645.177 359.925Z" fill="white"/>
<path id="monster3_2" d="M573.581 418.184C589.86 417.867 602.975 413.486 602.875 408.397C602.775 403.309 589.498 399.442 573.219 399.759C556.941 400.076 543.826 404.457 543.926 409.545C544.026 414.633 557.303 418.501 573.581 418.184Z" fill="#2F2E41"/>
<g id="monster1">
<path id="Vector_4" d="M100.916 457.385C109.16 457.385 115.843 454.89 115.843 451.812C115.843 448.734 109.16 446.239 100.916 446.239C92.6725 446.239 85.9896 448.734 85.9896 451.812C85.9896 454.89 92.6725 457.385 100.916 457.385Z" fill="#2F2E41"/>
<path id="Vector_5" d="M136.74 456.642C144.984 456.642 151.667 454.147 151.667 451.069C151.667 447.991 144.984 445.496 136.74 445.496C128.496 445.496 121.814 447.991 121.814 451.069C121.814 454.147 128.496 456.642 136.74 456.642Z" fill="#2F2E41"/>
<path id="Vector_6" d="M184.298 362.966C198.403 354.87 207.769 344.732 205.216 340.324C202.663 335.915 189.159 338.904 175.054 347C160.948 355.096 151.583 365.234 154.136 369.643C156.688 374.052 170.192 371.063 184.298 362.966Z" fill="#2F2E41"/>
<path id="Vector_7" d="M171.057 382.818C176.273 350.815 154.444 320.661 122.302 315.468C90.1597 310.275 59.8747 332.008 54.6587 364.011C49.4427 396.015 71.2709 426.168 103.413 431.362C135.556 436.555 165.841 414.822 171.057 382.818Z" fill="#2F2E41"/>
<path id="Vector_8" d="M103.902 419.487H85.9896V451.44H103.902V419.487Z" fill="#2F2E41"/>
<path id="Vector_9" d="M139.726 419.487H121.814V451.44H139.726V419.487Z" fill="#2F2E41"/>
<path id="Vector_10" d="M73.0848 358.754C75.2751 354.156 65.1253 344.797 50.4146 337.85C35.7038 330.903 22.0029 328.999 19.8126 333.597C17.6223 338.195 27.772 347.554 42.4828 354.501C57.1935 361.448 70.8945 363.352 73.0848 358.754Z" fill="#2F2E41"/>
</g>
<path id="Vector_11" d="M114.35 378.617C125.479 378.617 134.501 369.634 134.501 358.553C134.501 347.472 125.479 338.489 114.35 338.489C103.221 338.489 94.1993 347.472 94.1993 358.553C94.1993 369.634 103.221 378.617 114.35 378.617Z" fill="white"/>
<path id="Vector_12" d="M114.35 365.241C118.06 365.241 121.067 362.247 121.067 358.553C121.067 354.859 118.06 351.865 114.35 351.865C110.641 351.865 107.633 354.859 107.633 358.553C107.633 362.247 110.641 365.241 114.35 365.241Z" fill="#3F3D56"/>
<path id="hat1" d="M55.6642 318.821C50.9035 297.593 66.1218 276.142 89.6552 270.91C113.189 265.678 136.126 278.646 140.886 299.874C145.647 321.103 130.051 328.932 106.517 334.164C82.9838 339.396 60.425 340.05 55.6642 318.821Z" fill="#D1B6E1"/>
<path id="Vector_13" d="M83.8965 394.593C83.8965 400.339 98.7549 411.685 115.242 411.685C131.73 411.685 147.189 395.509 147.189 389.763C147.189 384.018 131.73 390.878 115.242 390.878C98.7549 390.878 83.8965 388.848 83.8965 394.593Z" fill="white"/>
<g id="monster2">
<path id="Vector_14" d="M318.447 457.385C326.691 457.385 333.374 454.89 333.374 451.812C333.374 448.734 326.691 446.239 318.447 446.239C310.203 446.239 303.521 448.734 303.521 451.812C303.521 454.89 310.203 457.385 318.447 457.385Z" fill="#2F2E41"/>
<path id="Vector_15" d="M282.623 456.642C290.867 456.642 297.55 454.147 297.55 451.069C297.55 447.991 290.867 445.496 282.623 445.496C274.38 445.496 267.697 447.991 267.697 451.069C267.697 454.147 274.38 456.642 282.623 456.642Z" fill="#2F2E41"/>
<path id="Vector_16" d="M265.228 369.643C267.781 365.234 258.415 355.096 244.31 347C230.204 338.904 216.7 335.915 214.148 340.324C211.595 344.732 220.96 354.87 235.066 362.966C249.171 371.062 262.675 374.052 265.228 369.643Z" fill="#2F2E41"/>
<path id="Vector_17" d="M306.506 432.12C339.069 432.12 365.466 405.837 365.466 373.415C365.466 340.993 339.069 314.71 306.506 314.71C273.943 314.71 247.546 340.993 247.546 373.415C247.546 405.837 273.943 432.12 306.506 432.12Z" fill="#2F2E41"/>
<path id="Vector_18" d="M368.161 418.164C373.101 416.857 373.718 403.097 369.538 387.429C365.359 371.762 357.966 360.12 353.026 361.426C348.086 362.732 347.47 376.493 351.649 392.16C355.829 407.828 363.221 419.47 368.161 418.164Z" fill="#2F2E41"/>
<path id="Vector_19" d="M333.374 419.487H315.462V451.44H333.374V419.487Z" fill="#2F2E41"/>
<path id="Vector_20" d="M297.55 419.487H279.638V451.44H297.55V419.487Z" fill="#2F2E41"/>
</g>
<path id="Vector_21" d="M292.692 378.617C303.821 378.617 312.843 369.634 312.843 358.553C312.843 347.472 303.821 338.489 292.692 338.489C281.563 338.489 272.541 347.472 272.541 358.553C272.541 369.634 281.563 378.617 292.692 378.617Z" fill="white"/>
<path id="Vector_22" d="M287.837 360.538C290.468 357.92 290.485 353.688 287.874 351.086C285.263 348.484 281.013 348.497 278.381 351.115C275.749 353.733 275.732 357.965 278.343 360.567C280.954 363.169 285.205 363.156 287.837 360.538Z" fill="#3F3D56"/>
<path id="hat2" d="M312.846 334.164C289.313 328.932 273.716 321.103 278.477 299.874C283.238 278.645 306.175 265.678 329.708 270.91C353.242 276.142 368.46 297.592 363.699 318.821C358.939 340.05 336.38 339.396 312.846 334.164Z" fill="#D1B6E1"/>
<path id="Vector_23" d="M293.148 390.879C282.324 390.879 272.175 384.018 272.175 389.764C272.175 395.51 282.324 411.685 293.148 411.685C303.973 411.685 313.728 400.34 313.728 394.594C313.728 388.849 303.973 390.879 293.148 390.879Z" fill="white"/>
<g id="question">
<path id="Vector_24" d="M216.952 276.08H211.716C207.025 276.075 202.528 274.217 199.211 270.915C195.895 267.613 194.029 263.135 194.024 258.465V254.088C194.024 243.247 196.087 234.17 200.156 227.109C205.087 218.896 210.839 211.2 217.326 204.139C221.632 199.827 225.54 195.138 229.001 190.128C231.484 186.236 232.766 181.704 232.688 177.093C232.688 166.218 225.572 160.932 210.933 160.932C202.813 161.023 194.744 162.229 186.955 164.515C183.951 165.369 180.789 165.517 177.718 164.947C174.646 164.378 171.75 163.106 169.256 161.233C166.762 159.36 164.739 156.936 163.346 154.151C161.953 151.367 161.228 148.299 161.227 145.189V136.329C161.21 132.515 162.305 128.777 164.378 125.57C166.451 122.363 169.414 119.823 172.908 118.259C186.665 112.414 201.501 109.508 216.457 109.729C232.125 109.729 246.268 112.35 258.496 117.516C270.745 122.695 280.423 129.998 287.261 139.222C294.077 148.381 297.7 159.507 297.578 170.906C297.578 183.147 294.221 193.808 287.602 202.593C281.055 211.29 271.67 220.81 259.707 230.892C253.404 236.111 247.431 241.713 241.823 247.667C238.2 251.552 235.64 256.297 234.387 261.449C233.689 265.548 231.554 269.267 228.362 271.946C225.17 274.625 221.127 276.089 216.952 276.08V276.08Z" fill="#519D9E"/>
<path id="ball" d="M214.04 358.917H213.35C204.657 358.912 196.323 355.47 190.178 349.348C184.033 343.226 180.581 334.925 180.581 326.27C180.581 317.615 184.033 309.314 190.178 303.192C196.323 297.07 204.657 293.627 213.35 293.622H214.04C218.348 293.619 222.614 294.462 226.595 296.101C230.576 297.74 234.193 300.145 237.24 303.177C240.287 306.209 242.704 309.809 244.353 313.771C246.003 317.733 246.851 321.98 246.851 326.27C246.851 330.559 246.003 334.806 244.353 338.768C242.704 342.731 240.287 346.331 237.24 349.363C234.193 352.394 230.576 354.799 226.595 356.438C222.614 358.078 218.348 358.92 214.04 358.917Z" fill="#519D9E"/>
</g>
<path id="Vector_25" d="M427.136 458H1.36902C1.00594 458 0.65774 457.856 0.400998 457.601C0.144256 457.345 0 456.998 0 456.637C0 456.275 0.144256 455.929 0.400998 455.673C0.65774 455.417 1.00594 455.274 1.36902 455.274H427.136C427.499 455.274 427.847 455.417 428.104 455.673C428.361 455.929 428.505 456.275 428.505 456.637C428.505 456.998 428.361 457.345 428.104 457.601C427.847 457.856 427.499 458 427.136 458Z" fill="#CCCCCC"/>
<path id="Vector_26" d="M714.631 458H487.373C487.01 458 486.662 457.856 486.405 457.601C486.148 457.345 486.004 456.998 486.004 456.637C486.004 456.275 486.148 455.929 486.405 455.673C486.662 455.417 487.01 455.274 487.373 455.274H714.631C714.994 455.274 715.342 455.417 715.599 455.673C715.856 455.929 716 456.275 716 456.637C716 456.998 715.856 457.345 715.599 457.601C715.342 457.856 714.994 458 714.631 458Z" fill="#CCCCCC"/>
<g id="square2">
<path id="Vector_27" d="M558.783 203.101H523.189C521.374 203.099 519.634 202.38 518.351 201.103C517.067 199.825 516.345 198.093 516.343 196.286V160.845C516.345 159.038 517.067 157.306 518.351 156.028C519.634 154.751 521.374 154.032 523.189 154.03H558.783C560.598 154.032 562.338 154.751 563.621 156.028C564.904 157.306 565.626 159.038 565.628 160.845V196.286C565.626 198.093 564.904 199.825 563.621 201.103C562.338 202.38 560.598 203.099 558.783 203.101ZM523.189 156.756C522.1 156.757 521.056 157.188 520.286 157.955C519.516 158.722 519.083 159.761 519.081 160.845V196.286C519.083 197.37 519.516 198.409 520.286 199.176C521.056 199.943 522.1 200.374 523.189 200.375H558.783C559.872 200.374 560.916 199.943 561.686 199.176C562.456 198.409 562.889 197.37 562.89 196.286V160.845C562.889 159.761 562.456 158.722 561.686 157.955C560.916 157.188 559.872 156.757 558.783 156.756H523.189Z" fill="#519D9E"/>
<path id="Vector_28" d="M575.211 179.929H539.617C537.802 179.927 536.062 179.208 534.779 177.93C533.496 176.652 532.774 174.92 532.772 173.113V137.673C532.774 135.866 533.496 134.133 534.779 132.856C536.062 131.578 537.802 130.859 539.617 130.857H575.211C577.026 130.859 578.766 131.578 580.049 132.856C581.333 134.133 582.055 135.866 582.057 137.673V173.113C582.055 174.92 581.333 176.652 580.049 177.93C578.766 179.208 577.026 179.927 575.211 179.929V179.929ZM539.617 133.583C538.528 133.585 537.484 134.016 536.714 134.782C535.944 135.549 535.511 136.588 535.51 137.673V173.113C535.511 174.197 535.944 175.237 536.714 176.003C537.484 176.77 538.528 177.201 539.617 177.202H575.211C576.3 177.201 577.344 176.77 578.114 176.003C578.884 175.237 579.317 174.197 579.319 173.113V137.673C579.317 136.588 578.884 135.549 578.114 134.782C577.344 134.016 576.3 133.585 575.211 133.583H539.617Z" fill="#519D9E"/>
</g>
<g id="squar1">
<path id="Vector_29" d="M294.561 66.7916H258.967C257.152 66.7896 255.412 66.0708 254.129 64.7931C252.845 63.5154 252.124 61.7831 252.122 59.9762V24.5357C252.124 22.7287 252.845 20.9964 254.129 19.7187C255.412 18.441 257.152 17.7223 258.967 17.7202H294.561C296.376 17.7223 298.116 18.441 299.399 19.7187C300.683 20.9964 301.404 22.7287 301.406 24.5357V59.9762C301.404 61.7831 300.683 63.5154 299.399 64.7931C298.116 66.0708 296.376 66.7896 294.561 66.7916V66.7916ZM258.967 20.4464C257.878 20.4476 256.834 20.8788 256.064 21.6454C255.294 22.4121 254.861 23.4515 254.86 24.5357V59.9762C254.861 61.0603 255.294 62.0998 256.064 62.8664C256.834 63.6331 257.878 64.0643 258.967 64.0655H294.561C295.65 64.0643 296.694 63.6331 297.464 62.8664C298.234 62.0998 298.667 61.0603 298.668 59.9762V24.5357C298.667 23.4515 298.234 22.4121 297.464 21.6454C296.694 20.8788 295.65 20.4476 294.561 20.4464H258.967Z" fill="#67D5B5"/>
<path id="Vector_30" d="M272.657 49.0714H237.062C235.247 49.0694 233.508 48.3506 232.224 47.0729C230.941 45.7952 230.219 44.0629 230.217 42.256V6.81548C230.219 5.00853 230.941 3.27621 232.224 1.99851C233.508 0.720808 235.247 0.0020672 237.062 0H272.657C274.472 0.0020672 276.212 0.720808 277.495 1.99851C278.778 3.27621 279.5 5.00853 279.502 6.81548V42.256C279.5 44.0629 278.778 45.7952 277.495 47.0729C276.212 48.3506 274.472 49.0694 272.657 49.0714V49.0714ZM237.062 2.72619C235.973 2.72737 234.929 3.15859 234.159 3.92522C233.389 4.69186 232.956 5.73129 232.955 6.81548V42.256C232.956 43.3401 233.389 44.3796 234.159 45.1462C234.929 45.9128 235.973 46.3441 237.062 46.3452H272.657C273.746 46.3441 274.79 45.9128 275.56 45.1462C276.33 44.3796 276.763 43.3401 276.764 42.256V6.81548C276.763 5.73129 276.33 4.69186 275.56 3.92522C274.79 3.15859 273.746 2.72737 272.657 2.72619H237.062Z" fill="#67D5B5"/>
</g>
<path id="ball3" d="M439.759 258.493C444.648 258.493 448.612 254.547 448.612 249.678C448.612 244.81 444.648 240.863 439.759 240.863C434.869 240.863 430.905 244.81 430.905 249.678C430.905 254.547 434.869 258.493 439.759 258.493Z" fill="#379392"/>
<path id="ball2" d="M83.8123 227.142C88.7019 227.142 92.6657 223.196 92.6657 218.327C92.6657 213.459 88.7019 209.512 83.8123 209.512C78.9228 209.512 74.959 213.459 74.959 218.327C74.959 223.196 78.9228 227.142 83.8123 227.142Z" fill="#4FB0C6"/>
<path id="ball1" d="M680.707 303.475C685.597 303.475 689.56 299.529 689.56 294.66C689.56 289.792 685.597 285.845 680.707 285.845C675.818 285.845 671.854 289.792 671.854 294.66C671.854 299.529 675.818 303.475 680.707 303.475Z" fill="#6C49B8"/>
</g>
<defs>
<linearGradient id="paint0_linear" x1="325" y1="6" x2="325" y2="454" gradientUnits="userSpaceOnUse">
<stop stop-color="#A8EDEA"/>
<stop offset="1" stop-color="#FED6E3"/>
</linearGradient>
<clipPath id="clip0">
<rect width="716" height="458" fill="white"/>
</clipPath>
</defs>
</svg>
